<svg width="32" height="34" viewBox="0 0 32 34" fill="none" xmlns="http://www.w3.org/2000/svg">
<g filter="url(#filter0_d_9_41)">
<path d="M14.5 22.5C16.7187 22.4995 18.8735 21.7568 20.6213 20.39L26.1162 25.885L27.8838 24.1175L22.3888 18.6225C23.7563 16.8746 24.4995 14.7193 24.5 12.5C24.5 6.98625 20.0138 2.5 14.5 2.5C8.98625 2.5 4.5 6.98625 4.5 12.5C4.5 18.0138 8.98625 22.5 14.5 22.5ZM14.5 5C18.6362 5 22 8.36375 22 12.5C22 16.6362 18.6362 20 14.5 20C10.3637 20 7 16.6362 7 12.5C7 8.36375 10.3637 5 14.5 5Z" fill="white" fill-opacity="0.6"/>
</g>
<defs>
<filter id="filter0_d_9_41" x="-2" y="0" width="38" height="38" filterUnits="userSpaceOnUse" color-interpolation-filters="sRGB">
<feFlood flood-opacity="0" result="BackgroundImageFix"/>
<feColorMatrix in="SourceAlpha" type="matrix" values="0 0 0 0 0 0 0 0 0 0 0 0 0 0 0 0 0 0 127 0" result="hardAlpha"/>
<feOffset dy="4"/>
<feGaussianBlur stdDeviation="2"/>
<feComposite in2="hardAlpha" operator="out"/>
<feColorMatrix type="matrix" values="0 0 0 0 0 0 0 0 0 0 0 0 0 0 0 0 0 0 0.25 0"/>
<feBlend mode="normal" in2="BackgroundImageFix" result="effect1_dropShadow_9_41"/>
<feBlend mode="normal" in="SourceGraphic" in2="effect1_dropShadow_9_41" result="shape"/>
</filter>
</defs>
</svg>
